<svg width="24" height="24" viewBox="0 0 24 24" fill="none" xmlns="http://www.w3.org/2000/svg">
<circle cx="12" cy="12" r="12" fill="#0A437C"/>
<path fill-rule="evenodd" clip-rule="evenodd" d="M9.7728 16.9286C14.2944 16.9286 16.7712 13.3001 16.7712 10.1634C16.7712 10.0613 16.7712 9.95922 16.7712 9.85714C17.2512 9.52306 17.664 9.09618 18 8.62289C17.5584 8.80849 17.0784 8.93841 16.5792 8.99409C17.088 8.70641 17.4816 8.23313 17.664 7.67632C17.1936 7.95472 16.6656 8.14961 16.0992 8.25169C15.648 7.78768 15.0144 7.5 14.304 7.5C12.9504 7.5 11.8464 8.56721 11.8464 9.88498C11.8464 10.0706 11.8656 10.2469 11.904 10.4232C9.8592 10.3304 8.0448 9.37458 6.8352 7.93616C6.624 8.28881 6.4992 8.69713 6.4992 9.1333C6.4992 9.95922 6.9408 10.6924 7.5936 11.1192C7.1904 11.1007 6.816 10.9986 6.48 10.8223V10.8501C6.48 12.0008 7.3344 12.966 8.4576 13.1887C8.2464 13.2444 8.0352 13.2722 7.8048 13.2722C7.6512 13.2722 7.4976 13.2537 7.344 13.2258C7.6608 14.1724 8.5728 14.8591 9.648 14.8777C8.8032 15.518 7.7376 15.8985 6.5856 15.8985C6.3936 15.8985 6.192 15.8892 6 15.8706C7.0848 16.5388 8.3808 16.9286 9.7728 16.9286Z" fill="white"/>
</svg>
