<svg width="24" height="24" viewBox="0 0 24 24" fill="none" xmlns="http://www.w3.org/2000/svg">
<circle cx="12" cy="12" r="12" fill="#0A437C"/>
<path fill-rule="evenodd" clip-rule="evenodd" d="M12.8089 6.00061C13.7529 6.00269 13.9702 6.01103 14.4737 6.03603C15.0723 6.06603 15.4845 6.16803 15.846 6.31203C16.213 6.46803 16.5292 6.67203 16.8455 7.00803C17.1561 7.33803 17.3537 7.67403 17.4949 8.07003C17.6361 8.44803 17.7321 8.88603 17.7603 9.52803C17.7651 9.66192 17.7693 9.77667 17.7731 9.88963L17.7783 10.0599C17.7889 10.4353 17.7942 10.8834 17.7942 12L17.7941 12.2453C17.793 13.6493 17.7817 13.8695 17.7603 14.472C17.7321 15.114 17.6361 15.546 17.4949 15.93C17.3537 16.326 17.1561 16.656 16.8455 16.992C16.5292 17.328 16.213 17.532 15.846 17.682C15.4845 17.832 15.0723 17.934 14.4737 17.964C13.9702 17.989 13.7529 17.9974 12.8089 17.9994L12.3901 18L12.1471 18C12.0618 18 11.9806 18 11.9033 18L11.483 17.9994C10.8514 17.9981 10.5444 17.9939 10.2606 17.9839L10.0908 17.9771C10.0049 17.9734 9.9156 17.969 9.81489 17.964C9.2163 17.934 8.80407 17.832 8.4483 17.682C8.0756 17.532 7.75936 17.328 7.44313 16.992C7.13254 16.656 6.94054 16.326 6.79371 15.93C6.65254 15.546 6.55654 15.114 6.53395 14.472C6.51166 13.9699 6.50345 13.7333 6.50098 12.8559V11.1418C6.50345 10.263 6.51166 10.0301 6.53395 9.52803C6.55654 8.88603 6.65254 8.44803 6.79371 8.07003C6.94054 7.67403 7.13254 7.33803 7.44313 7.00803C7.75936 6.67203 8.0756 6.46803 8.4483 6.31203C8.80407 6.16803 9.2163 6.06603 9.81489 6.03603C9.9156 6.03103 10.0049 6.02669 10.0908 6.02294L10.2606 6.0162C10.5444 6.00617 10.8514 6.002 11.483 6.00061H12.8089ZM12.1471 7.08003C12.0634 7.08003 11.9837 7.08005 11.9078 7.08009L11.4958 7.08061C10.5675 7.08269 10.3589 7.09103 9.86007 7.11603C9.3123 7.14003 9.01301 7.24203 8.81536 7.32003C8.54995 7.42803 8.3636 7.56003 8.16595 7.77003C7.9683 7.98003 7.84407 8.17803 7.74242 8.46003C7.66336 8.67003 7.57301 8.98803 7.55042 9.57603C7.54596 9.6755 7.54207 9.76405 7.53867 9.84896L7.5299 10.1C7.52165 10.383 7.51819 10.7063 7.51703 11.3394V12.6607C7.51819 13.2937 7.52165 13.617 7.5299 13.9L7.53867 14.1511C7.54207 14.236 7.54596 14.3246 7.55042 14.424C7.57301 15.006 7.66336 15.324 7.74242 15.54C7.84407 15.816 7.9683 16.02 8.16595 16.23C8.3636 16.44 8.54995 16.566 8.81536 16.674C9.01301 16.758 9.3123 16.854 9.86007 16.884C10.3589 16.909 10.5675 16.9174 11.4958 16.9194H12.7981C13.725 16.9174 13.9297 16.909 14.4285 16.884C14.9763 16.854 15.2756 16.758 15.4732 16.674C15.7387 16.566 15.925 16.44 16.1227 16.23C16.3203 16.02 16.4445 15.816 16.5462 15.54C16.6252 15.324 16.7156 15.006 16.7438 14.424C16.7617 13.9267 16.7689 13.7023 16.7712 12.8416L16.772 12.2415L16.7721 12C16.7721 11.9157 16.7721 11.8353 16.772 11.7585L16.7712 11.1585C16.7689 10.2978 16.7617 10.0734 16.7438 9.57603C16.7156 8.98803 16.6252 8.67003 16.5462 8.46003C16.4445 8.17803 16.3203 7.98003 16.1227 7.77003C15.925 7.56003 15.7387 7.42803 15.4732 7.32003C15.2756 7.24203 14.9763 7.14003 14.4285 7.11603C13.9297 7.09103 13.725 7.08269 12.7981 7.08061L12.3864 7.08009L12.1471 7.08003ZM12.2262 9.00003C13.8243 9.00003 15.1231 10.38 15.1231 12.084C15.1231 13.782 13.8243 15.162 12.2262 15.162C10.6224 15.162 9.3236 13.782 9.3236 12.084C9.3236 10.38 10.6224 9.00003 12.2262 9.00003ZM12.2262 10.086C11.1871 10.086 10.3401 10.98 10.3401 12.084C10.3401 13.188 11.1871 14.082 12.2262 14.082C13.2652 14.082 14.1067 13.188 14.1067 12.084C14.1067 10.98 13.2652 10.086 12.2262 10.086ZM15.0836 7.80003C15.462 7.80003 15.7612 8.12403 15.7612 8.52003C15.7612 8.91603 15.462 9.24003 15.0836 9.24003C14.7109 9.24003 14.406 8.91603 14.406 8.52003C14.406 8.12403 14.7109 7.80003 15.0836 7.80003Z" fill="white"/>
</svg>
