<svg width="24" height="24" viewBox="0 0 24 24" fill="none" xmlns="http://www.w3.org/2000/svg">
<circle cx="12" cy="12" r="12" fill="#0A437C"/>
<path fill-rule="evenodd" clip-rule="evenodd" d="M10.77 13.97V10.424L13.908 12.2L10.77 13.97ZM17.748 9.314C17.61 8.792 17.202 8.39 16.686 8.252C15.75 8 12 8 12 8C12 8 8.244 8 7.308 8.252C6.792 8.39 6.384 8.792 6.246 9.314C6 10.244 6 12.2 6 12.2C6 12.2 6 14.15 6.246 15.086C6.384 15.602 6.792 16.01 7.308 16.148C8.244 16.4 12 16.4 12 16.4C12 16.4 15.75 16.4 16.686 16.148C17.202 16.01 17.61 15.602 17.748 15.086C18 14.15 18 12.2 18 12.2C18 12.2 18 10.244 17.748 9.314Z" fill="white"/>
</svg>
